<?xml version="1.0" encoding="UTF-8" standalone="no"?>
<!-- Created with Inkscape (http://www.inkscape.org/) -->

<svg
   xmlns:dc="http://purl.org/dc/elements/1.1/"
   xmlns:cc="http://creativecommons.org/ns#"
   xmlns:rdf="http://www.w3.org/1999/02/22-rdf-syntax-ns#"
   xmlns:svg="http://www.w3.org/2000/svg"
   xmlns="http://www.w3.org/2000/svg"
   xmlns:sodipodi="http://sodipodi.sourceforge.net/DTD/sodipodi-0.dtd"
   xmlns:inkscape="http://www.inkscape.org/namespaces/inkscape"
   width="550"
   height="600"
   id="svg3925"
   version="1.1"
   inkscape:version="0.48.3.1 r9886"
   sodipodi:docname="monkey.svg">
  <title
     id="title4108">Monkey</title>
  <defs
     id="defs3927" />
  <sodipodi:namedview
     id="base"
     pagecolor="#ffffff"
     bordercolor="#666666"
     borderopacity="1.0"
     inkscape:pageopacity="0.0"
     inkscape:pageshadow="2"
     inkscape:zoom="0.81833333"
     inkscape:cx="180.90631"
     inkscape:cy="300"
     inkscape:document-units="px"
     inkscape:current-layer="capa1"
     showgrid="false"
     inkscape:window-width="1366"
     inkscape:window-height="712"
     inkscape:window-x="0"
     inkscape:window-y="27"
     inkscape:window-maximized="1" />
  <metadata
     id="metadata3930">
    <rdf:RDF>
      <cc:Work
         rdf:about="">
        <dc:format>image/svg+xml</dc:format>
        <dc:type
           rdf:resource="http://purl.org/dc/dcmitype/StillImage" />
        <dc:title>Monkey</dc:title>
        <dc:date>12/20/2013</dc:date>
        <dc:creator>
          <cc:Agent>
            <dc:title>Dux Phoenix</dc:title>
          </cc:Agent>
        </dc:creator>
        <dc:publisher>
          <cc:Agent>
            <dc:title>OpenClipArt</dc:title>
          </cc:Agent>
        </dc:publisher>
        <dc:subject>
          <rdf:Bag>
            <rdf:li>logo</rdf:li>
            <rdf:li>clip art</rdf:li>
            <rdf:li>clipart</rdf:li>
            <rdf:li>animal</rdf:li>
            <rdf:li>silhouette</rdf:li>
            <rdf:li>nature</rdf:li>
          </rdf:Bag>
        </dc:subject>
        <cc:license
           rdf:resource="http://creativecommons.org/licenses/publicdomain/" />
        <dc:description>Linear monkey head</dc:description>
      </cc:Work>
      <cc:License
         rdf:about="http://creativecommons.org/licenses/publicdomain/">
        <cc:permits
           rdf:resource="http://creativecommons.org/ns#Reproduction" />
        <cc:permits
           rdf:resource="http://creativecommons.org/ns#Distribution" />
        <cc:permits
           rdf:resource="http://creativecommons.org/ns#DerivativeWorks" />
      </cc:License>
    </rdf:RDF>
  </metadata>
  <g
     inkscape:label="Capa 1"
     inkscape:groupmode="layer"
     id="capa1"
     transform="translate(0,-452.36218)">
    <path
       style="fill:#000000;fill-opacity:1;stroke:none"
       d="m 321.89065,459.64343 c 0,0 -34.13567,13.67796 -47.25,37.59375 -13.11434,23.9158 -9.76075,52.03956 -15.4375,52.15625 -16.2865,0.33477 -62.15625,-36.625 -62.15625,-36.625 l 52.03125,57.09375 c -67.30327,10.1126 -118.34375,59.54584 -118.34375,130.375 0,0.9469 0.0131,1.9012 0.0312,2.84375 -3.5415,-1.73261 -7.26,-3.5111 -11.21875,-5.375 -9.12761,-4.29756 -18.75932,-6.31469 -28.343753,-6.28125 -28.75328,0.10033 -57.11943,18.53209 -70.34375,48.21875 -17.6324098,39.58221 -0.3626,110.63137 53.28125,130.59375 5.74741,2.13877 11.15209,2.85812 16.25,2.4375 -2.59663,10.77305 -3.96875,22.60598 -3.96875,35.84375 0,104.14517 84.448623,136.56247 188.593753,136.56247 104.14518,0 188.56255,-32.4173 188.56255,-136.56247 0,-13.23777 -1.37212,-25.0707 -3.96875,-35.84375 5.09791,0.42062 10.50259,-0.29873 16.25,-2.4375 53.64386,-19.96238 70.91367,-91.01154 53.28125,-130.59375 -13.22432,-29.68666 -41.59047,-48.11842 -70.34375,-48.21875 -9.58443,-0.0334 -19.21614,1.98369 -28.34375,6.28125 -3.94469,1.85728 -7.65708,3.61694 -11.1875,5.34375 0.0178,-0.93224 0.0312,-1.87601 0.0312,-2.8125 0,-71.11345 -51.45227,-120.66394 -119.15625,-130.5 1.85195,-0.23338 3.84127,-0.56708 6,-1.125 22.92815,-5.92574 23.75969,-35.87942 22.90625,-49.5 0.1229,6.54554 -1.1028,16.39138 -8.34375,23.0625 -4.15987,3.8325 -10.69808,8.05744 -20.15625,5.5625 -10.23053,-2.69868 -18.76504,-23.88696 -12.15625,-46.09375 6.6088,-22.20679 33.5,-42 33.5,-42 z m 6.5,52.65625 c 0,0 0.39755,2.61685 0.65625,6.625 -0.0891,-3.92612 -0.65625,-6.625 -0.65625,-6.625 z m -53.375,93.125 c 72.09422,0 124.53125,31.56204 124.53125,103.65625 0,28.01611 -8.85208,53.98533 -23.875,75.25 38.77411,31.11549 69.63912,82.84019 69.9375,136.40625 -36.92602,28.67665 -108.41722,52.875 -170.625,52.875 -62.20778,0 -133.66797,-24.19835 -170.59375,-52.875 0.29838,-53.56606 31.16338,-105.29076 69.9375,-136.40625 -15.02293,-21.26467 -23.84375,-47.23389 -23.84375,-75.25 0,-72.09421 52.43704,-103.65625 124.53125,-103.65625 z m -46.90625,65.96875 c -0.19275,0.003 -0.3953,0.0209 -0.59375,0.0312 -12.30433,0.64239 -35.28125,30.42817 -35.28125,60.90625 0,31.46124 -11.27499,64.93287 34.25,43.4375 27.46878,-12.96983 32.53125,1.11045 32.53125,-47.375 0,-31.46124 -13.68819,-55.14407 -30.34375,-56.96875 -0.18678,-0.0205 -0.36975,-0.0338 -0.5625,-0.0312 z m 93.78125,0 c -0.19275,-0.003 -0.37572,0.0108 -0.5625,0.0312 -16.65556,1.82468 -30.34375,25.50751 -30.34375,56.96875 0,48.48545 5.06247,34.40517 32.53125,47.375 45.52499,21.49537 34.25,-11.97626 34.25,-43.4375 0,-30.47808 -22.97692,-60.26386 -35.28125,-60.90625 -0.19845,-0.0103 -0.401,-0.0287 -0.59375,-0.0312 z m -93.71875,6.15625 c 0.32739,-0.003 0.62868,0.0263 0.9375,0.0625 13.76961,1.61601 25.96875,23.4491 25.96875,51.3125 0,42.94076 -12.36959,35.71038 -36.0625,45 -26.28732,10.30684 -24.05532,-11.10344 -22.21875,-38.90625 2.53725,-38.41036 21.22579,-57.37515 31.375,-57.46875 z m 93.65625,0 c 10.14921,0.0936 28.83775,19.05839 31.375,57.46875 1.83657,27.80281 4.06857,49.21309 -22.21875,38.90625 -23.69291,-9.28962 -36.0625,-2.05924 -36.0625,-45 0,-27.8634 12.19914,-49.69649 25.96875,-51.3125 0.30882,-0.0362 0.61011,-0.0655 0.9375,-0.0625 z m -93.9375,3.5625 c -0.94537,0.0122 -1.93555,0.14925 -2.90625,0.375 -15.53123,3.61192 -28.09375,33.75295 -28.09375,67.34375 0,33.5908 12.56252,25.14317 28.09375,21.53125 15.53123,-3.61191 28.125,-1.00296 28.125,-34.59375 0,-31.49137 -11.03817,-54.83939 -25.21875,-54.65625 z m 94.21875,0 c -14.18059,-0.18314 -25.21875,23.16488 -25.21875,54.65625 0,33.59079 12.59377,30.98184 28.125,34.59375 15.53122,3.61192 28.09375,12.05955 28.09375,-21.53125 0,-33.5908 -12.56253,-63.73183 -28.09375,-67.34375 -0.97071,-0.22575 -1.96088,-0.3628 -2.90625,-0.375 z m -94.46875,3.9375 c 12.98652,-0.16772 23.125,21.19156 23.125,50.03125 0,30.76233 -11.55781,28.37972 -25.78125,31.6875 -14.22345,3.30778 -25.75,11.04358 -25.75,-19.71875 0,-30.76234 11.52655,-58.37972 25.75,-61.6875 0.88896,-0.20674 1.79048,-0.30132 2.65625,-0.3125 z m 94.71875,0 c 0.86576,0.0112 1.76729,0.10576 2.65625,0.3125 14.22345,3.30778 25.75,30.92516 25.75,61.6875 0,30.76233 -11.52655,23.02653 -25.75,19.71875 -14.22344,-3.30778 -25.78125,-0.92517 -25.78125,-31.6875 0,-28.83969 10.13848,-50.19897 23.125,-50.03125 z m -94.375,30.65625 c -7.98223,0 -14.4375,10.59441 -14.4375,23.65625 0,13.06184 6.45527,23.65625 14.4375,23.65625 7.98223,0 14.46875,-10.59441 14.46875,-23.65625 0,-13.06184 -6.48652,-23.65625 -14.46875,-23.65625 z m 94.03125,0 c -7.98224,0 -14.46875,10.59441 -14.46875,23.65625 0,13.06184 6.48651,23.65625 14.46875,23.65625 7.98223,0 14.4375,-10.59441 14.4375,-23.65625 0,-13.06184 -6.45527,-23.65625 -14.4375,-23.65625 z m -226.718753,8.59375 c 7.364813,-0.0245 14.767463,1.45011 21.781253,4.59375 7.06859,3.1682 13.26289,6.0281 18.5625,8.84375 4.02976,15.02613 10.44056,29.08421 18.78125,41.75 -0.0244,0.0737 -0.0689,0.14472 -0.0937,0.21875 -9.97404,-10.95943 -33.75239,-21.31216 -43.625,-19.3125 -23.943783,4.84972 -27.562503,20.3494 -27.562503,34.59375 0,14.24435 11.5369,25.8125 25.781253,25.8125 2.84484,0 6.1968,-0.65824 9.78125,-1.78125 -9.92043,11.49244 -17.83774,23.7525 -23.343753,37.8125 -4.12617,0.43434 -8.50248,-0.0591 -13.1875,-1.71875 -41.2207,-14.60236 -54.4865,-66.57708 -40.9375,-95.53125 10.16176,-21.71561 31.96807,-35.20785 54.0625,-35.28125 z m 359.406253,0 c 22.09443,0.0734 43.90074,13.56564 54.0625,35.28125 13.549,28.95417 0.2832,80.92889 -40.9375,95.53125 -4.68502,1.65966 -9.06133,2.15309 -13.1875,1.71875 -5.50601,-14.06 -13.42332,-26.32006 -23.34375,-37.8125 3.58445,1.12301 6.93641,1.78125 9.78125,1.78125 14.24435,0 25.78125,-11.56815 25.78125,-25.8125 0,-14.24435 -3.61872,-29.74403 -27.5625,-34.59375 -9.87261,-1.99966 -33.65096,8.35307 -43.625,19.3125 -0.0248,-0.074 -0.0693,-0.14502 -0.0937,-0.21875 8.34687,-12.67259 14.74386,-26.74602 18.78125,-41.78125 5.29688,-2.81348 11.49947,-5.64679 18.5625,-8.8125 7.01379,-3.14364 14.41644,-4.61822 21.78125,-4.59375 z m -222.8125,23.1875 c 2.55047,0 4.625,1.73261 4.625,3.875 0,2.14239 -2.07453,3.875 -4.625,3.875 -2.55047,0 -4.625,-1.73261 -4.625,-3.875 0,-2.14239 2.07453,-3.875 4.625,-3.875 z m 94,0 c 2.55047,0 4.625,1.73261 4.625,3.875 0,2.14239 -2.07453,3.875 -4.625,3.875 -2.55047,0 -4.625,-1.73261 -4.625,-3.875 0,-2.14239 2.07453,-3.875 4.625,-3.875 z m -64.34375,85.5 c -5.39527,-0.16673 -12.2009,4.71813 -16.6875,12.53125 -5.52197,9.61615 -5.4462,20.03285 0.15625,23.25 5.60245,3.21715 14.60303,-1.9776 20.125,-11.59375 5.52197,-9.61615 5.47745,-20.03285 -0.125,-23.25 -1.05046,-0.60321 -2.22369,-0.89902 -3.46875,-0.9375 z m 26.90625,0 c -1.24506,0.0385 -2.41829,0.33429 -3.46875,0.9375 -5.60245,3.21715 -5.64697,13.63385 -0.125,23.25 5.52197,9.61615 14.52255,14.8109 20.125,11.59375 5.60245,-3.21715 5.67822,-13.63385 0.15625,-23.25 -4.4866,-7.81312 -11.29223,-12.69798 -16.6875,-12.53125 z m -184.0625,87.96875 c 32.29182,41.27162 105.3527,74.65625 170.59375,74.65625 65.24105,0 138.3329,-33.38463 170.625,-74.65625 7.5e-4,0.18801 0,0.37444 0,0.5625 0,94.22217 -76.3716,113.56247 -170.59375,113.56247 -94.22214,0 -170.625,-19.3403 -170.625,-113.56247 0,-0.18806 -7.5e-4,-0.37449 0,-0.5625 z"
       id="path3975"
       inkscape:connector-curvature="0" />
  </g>
</svg>
